<mxfile host="app.diagrams.net" agent="Mozilla/5.0 (Windows NT 10.0; Win64; x64) AppleWebKit/537.36 (KHTML, like Gecko) Chrome/138.0.0.0 Safari/537.36" version="28.0.9">
  <diagram name="Page-1" id="OjTQ8zmZwwcJHMKdBmVe">
    <mxGraphModel dx="1426" dy="777" grid="1" gridSize="10" guides="1" tooltips="1" connect="1" arrows="1" fold="1" page="1" pageScale="1" pageWidth="850" pageHeight="1100" math="0" shadow="0">
      <root>
        <mxCell id="0" />
        <mxCell id="1" parent="0" />
        <mxCell id="QWgopHZG0ijTjHltUbNs-1" value="&lt;h2&gt;&lt;font style=&quot;font-size: 22px;&quot;&gt;Start&lt;/font&gt;&lt;/h2&gt;" style="ellipse;whiteSpace=wrap;html=1;fillColor=#d5e8d4;strokeColor=#82b366;" vertex="1" parent="1">
          <mxGeometry x="130" y="40" width="250" height="60" as="geometry" />
        </mxCell>
        <mxCell id="QWgopHZG0ijTjHltUbNs-20" style="edgeStyle=orthogonalEdgeStyle;rounded=0;orthogonalLoop=1;jettySize=auto;html=1;exitX=1;exitY=0.5;exitDx=0;exitDy=0;" edge="1" parent="1" source="QWgopHZG0ijTjHltUbNs-3">
          <mxGeometry relative="1" as="geometry">
            <mxPoint x="380" y="200" as="targetPoint" />
          </mxGeometry>
        </mxCell>
        <mxCell id="QWgopHZG0ijTjHltUbNs-9" value="&lt;font style=&quot;font-size: 20px; color: rgb(0, 0, 0);&quot;&gt;Recognize&lt;/font&gt;&lt;div&gt;&lt;font style=&quot;font-size: 20px; color: rgb(0, 0, 0);&quot;&gt;&amp;nbsp;the Face&lt;/font&gt;&lt;/div&gt;" style="shape=parallelogram;perimeter=parallelogramPerimeter;whiteSpace=wrap;html=1;fixedSize=1;fillColor=#d80073;fontColor=#ffffff;strokeColor=#A50040;" vertex="1" parent="1">
          <mxGeometry x="130" y="280" width="260" height="70" as="geometry" />
        </mxCell>
        <mxCell id="QWgopHZG0ijTjHltUbNs-22" style="edgeStyle=orthogonalEdgeStyle;rounded=0;orthogonalLoop=1;jettySize=auto;html=1;exitX=1;exitY=0.5;exitDx=0;exitDy=0;" edge="1" parent="1" source="QWgopHZG0ijTjHltUbNs-12">
          <mxGeometry relative="1" as="geometry">
            <mxPoint x="800" y="120" as="targetPoint" />
          </mxGeometry>
        </mxCell>
        <mxCell id="QWgopHZG0ijTjHltUbNs-12" value="&lt;font style=&quot;font-size: 17px; color: rgb(0, 0, 0);&quot;&gt;Face&lt;/font&gt;&lt;div&gt;&lt;font style=&quot;font-size: 17px; color: rgb(0, 0, 0);&quot;&gt;Recognized&lt;/font&gt;&lt;/div&gt;" style="rhombus;whiteSpace=wrap;html=1;fillColor=#b1ddf0;strokeColor=#10739e;" vertex="1" parent="1">
          <mxGeometry x="145" y="390" width="230" height="80" as="geometry" />
        </mxCell>
        <mxCell id="QWgopHZG0ijTjHltUbNs-13" value="&lt;font style=&quot;font-size: 16px;&quot;&gt;Stored in CSV File&lt;/font&gt;&lt;div&gt;&lt;font style=&quot;font-size: 13px;&quot;&gt;With Registration&lt;/font&gt;&lt;/div&gt;&lt;div&gt;&lt;font style=&quot;font-size: 13px;&quot;&gt;Number &amp;amp; Date Time of Entry&lt;/font&gt;&lt;/div&gt;&lt;div&gt;&lt;div&gt;&lt;br&gt;&lt;/div&gt;&lt;/div&gt;" style="shape=parallelogram;perimeter=parallelogramPerimeter;whiteSpace=wrap;html=1;fixedSize=1;fillColor=#fa6800;fontColor=#000000;strokeColor=#C73500;" vertex="1" parent="1">
          <mxGeometry x="135" y="530" width="290" height="60" as="geometry" />
        </mxCell>
        <mxCell id="QWgopHZG0ijTjHltUbNs-14" value="&lt;h2&gt;&lt;font style=&quot;font-size: 22px;&quot;&gt;End&lt;/font&gt;&lt;/h2&gt;" style="ellipse;whiteSpace=wrap;html=1;fillColor=#ffe6cc;strokeColor=#d79b00;" vertex="1" parent="1">
          <mxGeometry x="150" y="670" width="280" height="80" as="geometry" />
        </mxCell>
        <mxCell id="QWgopHZG0ijTjHltUbNs-15" value="&lt;font face=&quot;Times New Roman&quot; style=&quot;font-size: 17px;&quot;&gt;Give your&lt;/font&gt;&lt;div&gt;&lt;font face=&quot;Times New Roman&quot; style=&quot;font-size: 17px;&quot;&gt;photograph&lt;/font&gt;&lt;/div&gt;" style="rounded=0;whiteSpace=wrap;html=1;fillColor=#fff2cc;strokeColor=#d6b656;" vertex="1" parent="1">
          <mxGeometry x="530" y="180" width="200" height="50" as="geometry" />
        </mxCell>
        <mxCell id="QWgopHZG0ijTjHltUbNs-16" value="&lt;font style=&quot;font-size: 14px;&quot;&gt;Store the face&lt;/font&gt;&lt;div&gt;&lt;font style=&quot;font-size: 14px;&quot;&gt;data in folder&lt;/font&gt;&lt;/div&gt;&lt;div&gt;&lt;font style=&quot;font-size: 14px;&quot;&gt;on your name&lt;/font&gt;&lt;/div&gt;" style="rounded=0;whiteSpace=wrap;html=1;fillColor=#dae8fc;strokeColor=#6c8ebf;" vertex="1" parent="1">
          <mxGeometry x="550" y="280" width="170" height="60" as="geometry" />
        </mxCell>
        <mxCell id="QWgopHZG0ijTjHltUbNs-18" value="" style="endArrow=classic;html=1;rounded=0;entryX=1;entryY=0.5;entryDx=0;entryDy=0;exitX=0.006;exitY=0.617;exitDx=0;exitDy=0;exitPerimeter=0;" edge="1" parent="1" source="QWgopHZG0ijTjHltUbNs-16" target="QWgopHZG0ijTjHltUbNs-9">
          <mxGeometry width="50" height="50" relative="1" as="geometry">
            <mxPoint x="480" y="330" as="sourcePoint" />
            <mxPoint x="530" y="280" as="targetPoint" />
          </mxGeometry>
        </mxCell>
        <mxCell id="QWgopHZG0ijTjHltUbNs-19" value="" style="endArrow=none;html=1;rounded=0;" edge="1" parent="1">
          <mxGeometry width="50" height="50" relative="1" as="geometry">
            <mxPoint x="380" y="200" as="sourcePoint" />
            <mxPoint x="380" y="200" as="targetPoint" />
            <Array as="points">
              <mxPoint x="530" y="200" />
            </Array>
          </mxGeometry>
        </mxCell>
        <mxCell id="QWgopHZG0ijTjHltUbNs-21" value="" style="endArrow=none;html=1;rounded=0;entryX=0.545;entryY=1.08;entryDx=0;entryDy=0;entryPerimeter=0;" edge="1" parent="1" target="QWgopHZG0ijTjHltUbNs-15">
          <mxGeometry width="50" height="50" relative="1" as="geometry">
            <mxPoint x="639" y="280" as="sourcePoint" />
            <mxPoint x="630" y="230" as="targetPoint" />
          </mxGeometry>
        </mxCell>
        <mxCell id="QWgopHZG0ijTjHltUbNs-26" value="" style="endArrow=none;html=1;rounded=0;" edge="1" parent="1">
          <mxGeometry width="50" height="50" relative="1" as="geometry">
            <mxPoint x="640" y="120" as="sourcePoint" />
            <mxPoint x="800" y="120" as="targetPoint" />
          </mxGeometry>
        </mxCell>
        <mxCell id="QWgopHZG0ijTjHltUbNs-28" value="" style="endArrow=classic;html=1;rounded=0;entryX=0.555;entryY=-0.06;entryDx=0;entryDy=0;entryPerimeter=0;" edge="1" parent="1" target="QWgopHZG0ijTjHltUbNs-15">
          <mxGeometry width="50" height="50" relative="1" as="geometry">
            <mxPoint x="640" y="120" as="sourcePoint" />
            <mxPoint x="640" y="170" as="targetPoint" />
          </mxGeometry>
        </mxCell>
        <mxCell id="QWgopHZG0ijTjHltUbNs-29" value="" style="endArrow=classic;html=1;rounded=0;entryX=0.5;entryY=0;entryDx=0;entryDy=0;exitX=0.5;exitY=1;exitDx=0;exitDy=0;" edge="1" parent="1" source="QWgopHZG0ijTjHltUbNs-1" target="QWgopHZG0ijTjHltUbNs-3">
          <mxGeometry width="50" height="50" relative="1" as="geometry">
            <mxPoint x="260" y="100" as="sourcePoint" />
            <mxPoint x="310" y="50" as="targetPoint" />
          </mxGeometry>
        </mxCell>
        <mxCell id="QWgopHZG0ijTjHltUbNs-30" value="" style="endArrow=classic;html=1;rounded=0;exitX=0.5;exitY=1;exitDx=0;exitDy=0;" edge="1" parent="1" source="QWgopHZG0ijTjHltUbNs-9">
          <mxGeometry width="50" height="50" relative="1" as="geometry">
            <mxPoint x="400" y="400" as="sourcePoint" />
            <mxPoint x="260" y="390" as="targetPoint" />
          </mxGeometry>
        </mxCell>
        <mxCell id="QWgopHZG0ijTjHltUbNs-31" value="" style="endArrow=classic;html=1;rounded=0;" edge="1" parent="1" source="QWgopHZG0ijTjHltUbNs-3">
          <mxGeometry width="50" height="50" relative="1" as="geometry">
            <mxPoint x="250" y="240" as="sourcePoint" />
            <mxPoint x="300" y="190" as="targetPoint" />
          </mxGeometry>
        </mxCell>
        <mxCell id="QWgopHZG0ijTjHltUbNs-3" value="&lt;font style=&quot;font-size: 20px; color: rgb(0, 0, 0);&quot;&gt;New User?&lt;/font&gt;" style="rhombus;whiteSpace=wrap;html=1;fillColor=#e51400;fontColor=#ffffff;strokeColor=#B20000;" vertex="1" parent="1">
          <mxGeometry x="130" y="150" width="250" height="90" as="geometry" />
        </mxCell>
        <mxCell id="QWgopHZG0ijTjHltUbNs-33" value="" style="endArrow=classic;html=1;rounded=0;exitX=0.5;exitY=1;exitDx=0;exitDy=0;" edge="1" parent="1" source="QWgopHZG0ijTjHltUbNs-3">
          <mxGeometry width="50" height="50" relative="1" as="geometry">
            <mxPoint x="250" y="240" as="sourcePoint" />
            <mxPoint x="255" y="270" as="targetPoint" />
          </mxGeometry>
        </mxCell>
        <mxCell id="QWgopHZG0ijTjHltUbNs-34" value="" style="endArrow=classic;html=1;rounded=0;entryX=0.441;entryY=-0.05;entryDx=0;entryDy=0;entryPerimeter=0;" edge="1" parent="1" target="QWgopHZG0ijTjHltUbNs-13">
          <mxGeometry width="50" height="50" relative="1" as="geometry">
            <mxPoint x="260" y="480" as="sourcePoint" />
            <mxPoint x="320" y="430" as="targetPoint" />
            <Array as="points">
              <mxPoint x="260" y="470" />
            </Array>
          </mxGeometry>
        </mxCell>
        <mxCell id="QWgopHZG0ijTjHltUbNs-35" value="" style="endArrow=classic;html=1;rounded=0;" edge="1" parent="1">
          <mxGeometry width="50" height="50" relative="1" as="geometry">
            <mxPoint x="270" y="600" as="sourcePoint" />
            <mxPoint x="270" y="660" as="targetPoint" />
          </mxGeometry>
        </mxCell>
        <mxCell id="QWgopHZG0ijTjHltUbNs-36" value="NO" style="text;html=1;align=center;verticalAlign=middle;resizable=0;points=[];autosize=1;strokeColor=none;fillColor=none;" vertex="1" parent="1">
          <mxGeometry x="200" y="228" width="40" height="30" as="geometry" />
        </mxCell>
        <mxCell id="QWgopHZG0ijTjHltUbNs-37" value="Yes" style="text;html=1;align=center;verticalAlign=middle;resizable=0;points=[];autosize=1;strokeColor=none;fillColor=none;" vertex="1" parent="1">
          <mxGeometry x="190" y="468" width="40" height="30" as="geometry" />
        </mxCell>
        <mxCell id="QWgopHZG0ijTjHltUbNs-38" value="No" style="text;html=1;align=center;verticalAlign=middle;resizable=0;points=[];autosize=1;strokeColor=none;fillColor=none;" vertex="1" parent="1">
          <mxGeometry x="530" y="398" width="40" height="30" as="geometry" />
        </mxCell>
        <mxCell id="QWgopHZG0ijTjHltUbNs-39" value="Yes" style="text;html=1;align=center;verticalAlign=middle;resizable=0;points=[];autosize=1;strokeColor=none;fillColor=none;" vertex="1" parent="1">
          <mxGeometry x="450" y="158" width="40" height="30" as="geometry" />
        </mxCell>
      </root>
    </mxGraphModel>
  </diagram>
</mxfile>
